# https://github.com/mikedh/trimesh
mtllib b2bd52d777364996962de21c9647b45b.mtl

o geometry_0
usemtl material_0
v -164.92269897 -137.58251953 163.56509399
v -27.33811951 -0.00209045 163.56512451
v -164.92269897 137.58236694 163.56518555
v 164.92269897 137.58236694 163.56518555
v 27.33822632 0.00215149 163.56512451
v 164.92269897 -137.58251953 163.56509399
v -164.92269897 -137.58251953 163.56509399
v -164.92269897 137.58236694 163.56518555
v -164.92269897 -137.58239746 -163.56518555
v -164.92269897 137.58251953 -163.56509399
v -164.92269897 137.58236694 163.56518555
v 164.92269897 137.58236694 163.56518555
v -164.92269897 137.58251953 -163.56509399
v 164.92269897 137.58251953 -163.56509399
v 164.92269897 137.58236694 163.56518555
v 164.92269897 -137.58251953 163.56509399
v 164.92269897 137.58251953 -163.56509399
v 164.92269897 -137.58239746 -163.56518555
v 164.92269897 -137.58251953 163.56509399
v -164.92269897 -137.58251953 163.56509399
v 164.92269897 -137.58239746 -163.56518555
v -164.92269897 -137.58239746 -163.56518555
v -164.92269897 -137.58239746 -163.56518555
v -27.33811951 -0.00196838 -163.56515503
v -164.92269897 137.58251953 -163.56509399
v 164.92269897 137.58251953 -163.56509399
v 27.33822632 0.00227356 -163.56515503
v 164.92269897 -137.58239746 -163.56518555
vn 0.00000006 -0.00000028 1.00000000
vn 0.00000003 -0.00000033 1.00000000
vn 0.00000006 -0.00000039 1.00000000
vn -0.00000006 -0.00000039 1.00000000
vn -0.00000003 -0.00000033 1.00000000
vn -0.00000006 -0.00000028 1.00000000
vn -1.00000000 0.00000000 0.00000000
vn -1.00000000 0.00000000 0.00000000
vn -1.00000000 0.00000000 0.00000000
vn -1.00000000 0.00000000 0.00000000
vn 0.00000000 1.00000000 0.00000047
vn 0.00000000 1.00000000 0.00000047
vn 0.00000000 1.00000000 0.00000047
vn 0.00000000 1.00000000 0.00000047
vn 1.00000000 0.00000000 0.00000000
vn 1.00000000 0.00000000 0.00000000
vn 1.00000000 0.00000000 0.00000000
vn 1.00000000 0.00000000 0.00000000
vn 0.00000000 -1.00000000 -0.00000037
vn 0.00000000 -1.00000000 -0.00000037
vn 0.00000000 -1.00000000 -0.00000037
vn 0.00000000 -1.00000000 -0.00000037
vn -0.00000006 0.00000028 -1.00000000
vn -0.00000003 0.00000033 -1.00000000
vn -0.00000006 0.00000039 -1.00000000
vn 0.00000006 0.00000039 -1.00000000
vn 0.00000003 0.00000033 -1.00000000
vn 0.00000006 0.00000028 -1.00000000
vt 0.37765542 0.25024509
vt 0.42957163 0.12573487
vt 0.37765542 0.00122070
vt 0.50216758 0.00122070
vt 0.45025140 0.12573093
vt 0.50216758 0.25024509
vt 0.25012231 0.00122094
vt 0.19344853 0.00122094
vt 0.25012231 0.50024486
vt 0.19344853 0.50024486
vt 0.19344853 0.00122094
vt 0.12536633 0.00122094
vt 0.19344853 0.50024486
vt 0.12536633 0.50024486
vt 0.12536633 0.00122094
vt 0.06857060 0.00122094
vt 0.12536633 0.50024486
vt 0.06857060 0.50024486
vt 0.06857060 0.00122094
vt 0.00061035 0.00122094
vt 0.06857060 0.50024486
vt 0.00061035 0.50024486
vt 0.25164810 0.25024509
vt 0.30356428 0.12573487
vt 0.25164810 0.00122070
vt 0.37616029 0.00122070
vt 0.32424408 0.12573093
vt 0.37616029 0.25024509
f 3/3/3 1/1/1 2/2/2
f 4/4/4 3/3/3 5/5/5
f 6/6/6 4/4/4 5/5/5
f 1/1/1 6/6/6 2/2/2
f 2/2/2 5/5/5 3/3/3
f 5/5/5 2/2/2 6/6/6
f 9/9/9 7/7/7 8/8/8
f 9/9/9 8/8/8 10/10/10
f 13/13/13 11/11/11 12/12/12
f 13/13/13 12/12/12 14/14/14
f 17/17/17 15/15/15 16/16/16
f 17/17/17 16/16/16 18/18/18
f 21/21/21 19/19/19 20/20/20
f 21/21/21 20/20/20 22/22/22
f 23/23/23 25/25/25 24/24/24
f 25/25/25 26/26/26 27/27/27
f 26/26/26 28/28/28 27/27/27
f 28/28/28 23/23/23 24/24/24
f 27/27/27 24/24/24 25/25/25
f 24/24/24 27/27/27 28/28/28

